<?xml version="1.0" encoding="utf-8"?>
<!-- Svg Vector Icons : http://www.onlinewebfonts.com/icon -->
<!DOCTYPE svg PUBLIC "-//W3C//DTD SVG 1.1//EN" "http://www.w3.org/Graphics/SVG/1.1/DTD/svg11.dtd">
<svg version="1.1" xmlns="http://www.w3.org/2000/svg" xmlns:xlink="http://www.w3.org/1999/xlink" x="22px" y="22px" viewBox="0 0 1000 1000" enable-background="new 0 0 1000 1000" xml:space="preserve">
<metadata> Svg Vector Icons : http://www.onlinewebfonts.com/icon </metadata>
<g><g transform="translate(0.000000,511.000000) scale(0.100000,-0.100000)"><path d="M2498.9,4407c-774.8-88.2-1394.3-439.2-1852.6-1051c-245.5-326-410.4-694.3-502.5-1112.3c-53.7-249.3-59.4-772.9-9.6-1026C205.2,864.7,349.1,508,537,222.2C669.3,19,721.1-40.5,1125.8-466.3c393.2-414.2,1292.6-1378.9,2299.5-2472.1c932.1-1010.7,997.3-1075.9,1131.5-1148.8c306.9-163,673.2-147.7,953.2,40.3c61.4,40.3,3482.8,3618.9,3726.4,3897c310.7,354.8,527.4,807.4,627.1,1306c51.8,255.1,47.9,757.5-7.7,1020.3C9735,2742.3,9501,3168,9075.2,3593.8c-565.8,565.8-1145,818.9-1889.1,820.8c-268.5,1.9-316.4-3.8-489.1-51.8C6233,4234.4,5696,3904.5,5168.6,3423.1l-168.8-151.5l-186,166.9c-552.3,491-1072.1,801.7-1540,924.4C3066.6,4416.5,2744.4,4433.8,2498.9,4407z M3149.1,3783.7c174.5-47.9,483.3-201.4,703.8-351c253.1-174.5,448.8-339.5,836.2-707.7l310.7-297.3l278.1,264.7c586.9,561.9,840,757.5,1227.4,949.3c310.7,153.4,494.8,199.5,749.9,184.1c552.4-34.5,981.9-234,1398.1-654c598.4-602.2,792.1-1440.3,519.7-2240c-67.1-197.5-176.4-402.7-304.9-575.3c-141.9-189.9-3657.3-3875.9-3739.8-3923.9c-90.1-49.9-164.9-53.7-251.2-13.4c-36.4,17.3-328,316.4-694.3,715.3C3097.3-1689.8,1810.4-307.1,1494,20.9c-335.6,349-464.1,521.6-588.8,786.3c-331.8,698.1-243.6,1563,222.5,2184.4c132.3,176.4,427.7,452.6,584.9,544.7C2146.1,3791.3,2738.7,3893,3149.1,3783.7z"/></g></g>
</svg>